<svg width="18" height="18" viewBox="0 0 18 18" xmlns="http://www.w3.org/2000/svg">
  <g>
    <path d="M17.64 9.2045c0-.638-.0573-1.2518-.1636-1.8363H9v3.4818h4.8445c-.2082 1.1236-.8345 2.0763-1.7763 2.719v2.2582h2.8736C16.9781 14.0963 17.64 11.8781 17.64 9.2045z" fill="#4285F4"/>
    <path d="M9 18c2.43 0 4.4673-.8063 5.9563-2.1882l-2.8736-2.2582c-.7973.5345-1.8136.8491-3.0827.8491-2.3691 0-4.3773-1.6018-5.0963-3.7572H.9395v2.3063C2.4227 16.2936 5.4818 18 9 18z" fill="#34A853"/>
    <path d="M3.9037 10.6455c-.1818-.5345-.2863-1.1045-.2863-1.6955s.1045-1.161.2863-1.6955V4.9482H.9395C.3418 6.161 0 7.5309 0 9c0 1.4691.3418 2.839.9395 4.0518l2.9642-2.4063z" fill="#FBBC05"/>
    <path d="M9 3.5791c1.3227 0 2.5045.4545 3.4363 1.3455l2.5773-2.5773C13.4673.8063 11.43 0 9 0 5.4818 0 2.4227 1.7064.9395 4.9482l2.9642 2.3063C4.6227 5.1809 6.6309 3.5791 9 3.5791z" fill="#EA4335"/>
  </g>
</svg> 